<?xml version="1.0" encoding="utf-8"?>
<!-- Generator: Adobe Illustrator 19.2.1, SVG Export Plug-In . SVG Version: 6.00 Build 0)  -->
<svg version="1.1" id="Layer_1" xmlns="http://www.w3.org/2000/svg" xmlns:xlink="http://www.w3.org/1999/xlink" x="0px" y="0px"
	 viewBox="0 0 1280 800" style="enable-background:new 0 0 1280 800;" xml:space="preserve">
<style type="text/css">
	.st0{clip-path:url(#SVGID_2_);fill:url(#SVGID_3_);}
	.st1{clip-path:url(#SVGID_2_);fill:url(#SVGID_4_);}
	.st2{clip-path:url(#SVGID_2_);fill:url(#SVGID_5_);}
	.st3{clip-path:url(#SVGID_2_);fill:url(#SVGID_6_);}
	.st4{clip-path:url(#SVGID_2_);fill:url(#SVGID_7_);}
</style>
<g>
	<defs>
		<rect id="SVGID_1_" x="-462.4" y="97" width="2105.4" height="789.6"/>
	</defs>
	<clipPath id="SVGID_2_">
		<use xlink:href="#SVGID_1_"  style="overflow:visible;"/>
	</clipPath>
	<linearGradient id="SVGID_3_" gradientUnits="userSpaceOnUse" x1="587.2581" y1="891" x2="587.2581" y2="91">
		<stop  offset="0" style="stop-color:#6BC7FF"/>
		<stop  offset="0.3095" style="stop-color:#67C4FE"/>
		<stop  offset="0.6017" style="stop-color:#5CBDFC"/>
		<stop  offset="0.886" style="stop-color:#49B0F7"/>
		<stop  offset="1" style="stop-color:#3FA9F5"/>
	</linearGradient>
	<rect x="-476" y="91" class="st0" width="2126.5" height="800"/>
	<linearGradient id="SVGID_4_" gradientUnits="userSpaceOnUse" x1="436.5849" y1="914" x2="436.5849" y2="654.6817">
		<stop  offset="0" style="stop-color:#18B527"/>
		<stop  offset="0.4028" style="stop-color:#19B228"/>
		<stop  offset="0.6946" style="stop-color:#1DA92B"/>
		<stop  offset="0.9506" style="stop-color:#249930"/>
		<stop  offset="1" style="stop-color:#269531"/>
	</linearGradient>
	<path class="st1" d="M1220,903.6c0,0,257.6-126.6,125.4-195.3s-485.5-85.5-804.8,34.8c-113.2,42.6-276,40.5-286.5,39
		c-10.5-1.5-200.9,0.1-200.9,0.1L-510,759.3V914l1339-4.9L1220,903.6z"/>
	<linearGradient id="SVGID_5_" gradientUnits="userSpaceOnUse" x1="150.5436" y1="945.8154" x2="168.7846" y2="737.3192">
		<stop  offset="0" style="stop-color:#009F14"/>
		<stop  offset="0.4493" style="stop-color:#009C14"/>
		<stop  offset="0.7743" style="stop-color:#009314"/>
		<stop  offset="1" style="stop-color:#008714"/>
	</linearGradient>
	<path class="st2" d="M-476.2,695.6c477.4-9.5,661.4,104.5,875.5,135.1C613.3,861.3,804,858.6,804,858.6V891H-476L-476.2,695.6z"/>
	<linearGradient id="SVGID_6_" gradientUnits="userSpaceOnUse" x1="1027.1318" y1="945.5291" x2="1008.9006" y2="737.1457">
		<stop  offset="0" style="stop-color:#009F14"/>
		<stop  offset="0.4028" style="stop-color:#009C14"/>
		<stop  offset="0.6946" style="stop-color:#009314"/>
		<stop  offset="0.9506" style="stop-color:#008314"/>
		<stop  offset="1" style="stop-color:#007F14"/>
	</linearGradient>
	<path class="st3" d="M1650.6,695.6c-475-9.5-658,104.5-871,135.1c-213,30.6-402.6,27.8-402.6,27.8V891h1273.4L1650.6,695.6z"/>
	<linearGradient id="SVGID_7_" gradientUnits="userSpaceOnUse" x1="163.1056" y1="895.0004" x2="163.1056" y2="735.7843">
		<stop  offset="0" style="stop-color:#26BF31"/>
		<stop  offset="0.3633" style="stop-color:#26BC31"/>
		<stop  offset="0.6265" style="stop-color:#26B331"/>
		<stop  offset="0.8574" style="stop-color:#26A331"/>
		<stop  offset="1" style="stop-color:#269531"/>
	</linearGradient>
	<path class="st4" d="M-292.2,891c0,0,116.5-103.5,278-133.2c176.2-32.4,236.9-29.7,362.4,12S542.7,882,614.7,891
		S-292.2,891-292.2,891z"/>
</g>
</svg>
