<?xml version="1.0" encoding="utf-8"?>
<!-- Generator: Adobe Illustrator 19.2.1, SVG Export Plug-In . SVG Version: 6.00 Build 0)  -->
<svg version="1.1" id="Layer_2" xmlns="http://www.w3.org/2000/svg" xmlns:xlink="http://www.w3.org/1999/xlink" x="0px" y="0px"
	 viewBox="0 0 323.5 101" style="enable-background:new 0 0 323.5 101;" xml:space="preserve">
<style type="text/css">
	.st0{display:none;stroke:#FFFFFF;stroke-width:1.5094;stroke-miterlimit:10;}
	.st1{opacity:0.7;clip-path:url(#SVGID_2_);fill:#FFFFFF;stroke:#000000;stroke-width:1.5094;stroke-miterlimit:10;}
	.st2{fill:none;stroke:#000000;stroke-width:1.5094;stroke-miterlimit:10;}
</style>
<title>cloud</title>
<rect x="-31" y="-32" class="st0" width="395" height="165"/>
<g>
	<defs>
		<path id="SVGID_1_" d="M259.3,22.1c-9.2,0-18.3,0.9-26.9,2.8c-7-12-35.6-21-69.8-21c-29.4,0.1-54.5,6.7-65.6,16
			c-7.6-0.9-15.3-1.4-23-1.4C34.8,18.6,3,30,3,44.1c0,11.1,19.6,20.5,47,24c0,0.1,0,0.2,0,0.4c0,13.5,24,24.4,53.5,24.4
			c14.3,0,27.3-2.6,36.9-6.7c9.9,7.4,28.6,12.4,50.1,12.4c29.5,0,53.8-9.4,57.1-21.6c3.9,0.3,7.7,0.5,11.6,0.5
			c33.5,0,60.8-12.4,60.8-27.7S292.8,22.1,259.3,22.1z"/>
	</defs>
	<clipPath id="SVGID_2_">
		<use xlink:href="#SVGID_1_"  style="overflow:visible;"/>
	</clipPath>
	<rect class="st1" width="337" height="111"/>
</g>
<path class="st2" d="M259.3,22.1c-9.2,0-18.3,0.9-26.9,2.8c-7-12-35.6-21-69.8-21c-29.4,0.1-54.5,6.7-65.6,16
	c-7.6-0.9-15.3-1.4-23-1.4C34.8,18.6,3,30,3,44.1c0,11.1,19.6,20.5,47,24c0,0.1,0,0.2,0,0.4c0,13.5,24,24.4,53.5,24.4
	c14.3,0,27.3-2.6,36.9-6.7c9.9,7.4,28.6,12.4,50.1,12.4c29.5,0,53.8-9.4,57.1-21.6c3.9,0.3,7.7,0.5,11.6,0.5
	c33.5,0,60.8-12.4,60.8-27.7S292.8,22.1,259.3,22.1z"/>
</svg>
