<svg id="Layer_2" data-name="Layer 2" xmlns="http://www.w3.org/2000/svg" viewBox="0 0 465.29 252"><defs><style>.cls-1{fill:#333;}.cls-2,.cls-3{stroke:#fbb03b;}.cls-2,.cls-3,.cls-4{stroke-miterlimit:10;}.cls-3{fill:none;stroke-width:6px;}.cls-4,.cls-6{fill:#fbb03b;}.cls-4{stroke:#000;}.cls-5{font-size:55px;font-family:Chaparral Pro;font-weight:700;}</style></defs><title>train_engine</title><rect class="cls-1" x="87.46" y="194.5" width="348" height="49" rx="4.17" ry="4.17"/><polygon class="cls-2" points="87.54 192 1.79 244 94.29 244 94.29 191.7 87.54 192"/><circle class="cls-2" cx="122.96" cy="228.5" r="21.75"/><circle class="cls-2" cx="202.96" cy="228.5" r="21.75"/><circle class="cls-2" cx="280.79" cy="211.5" r="40"/><circle class="cls-2" cx="390.79" cy="211.5" r="40"/><line class="cls-3" x1="280.79" y1="222.67" x2="390.79" y2="222.49"/><rect class="cls-2" x="199.46" y="93.5" width="31" height="17"/><path class="cls-2" d="M218,376.12l-18.6,11.16a2,2,0,0,0,1,3.72h37.08a2,2,0,0,0,1-3.72L220,376.12A2,2,0,0,0,218,376.12Z" transform="translate(-4.21 -297.5)"/><rect class="cls-2" x="127.46" y="68.5" width="24.5" height="42"/><polygon class="cls-2" points="127.45 47 151.46 47 156.96 56.77 151.96 70 127.45 70 122.45 56.77 127.45 47"/><path class="cls-2" d="M109.12,492.12A90.8,90.8,0,0,1,97.5,448.72c0-24.59,13-50.22,13-50.22h272v93.37Z" transform="translate(-4.21 -297.5)"/><path class="cls-2" d="M451.67,541h-21s4.66-47.17-40-47.17S289.33,493,289.33,493s-10.57,0-15,4.66a16.47,16.47,0,0,1-11.68,5.15L113.33,504s-10.67,0-11,13H91.67V489l150.42-.33s4.13-23,44.13-23.33,37.06,0.5,37.06.5L323.33,311H451.67V541Z" transform="translate(-4.21 -297.5)"/><rect class="cls-2" x="313.46" y="0.5" width="151.33" height="14"/><circle class="cls-4" cx="384.29" cy="76.33" r="36.17"/><text class="cls-5" transform="translate(367.35 93.5)">T</text><circle class="cls-6" cx="122.96" cy="228.5" r="2.92"/><circle class="cls-6" cx="202.96" cy="228.5" r="2.92"/><circle class="cls-6" cx="280.79" cy="222.67" r="2.92"/><circle class="cls-6" cx="390.79" cy="222.49" r="2.92"/></svg>