<svg id="Layer_2" data-name="Layer 2" xmlns="http://www.w3.org/2000/svg" viewBox="0 0 512.33 269.52"><defs><style>.cls-1{fill:#4d4d4d;}.cls-2,.cls-3,.cls-4{stroke:#fbb03b;stroke-miterlimit:10;}.cls-3,.cls-4{fill:none;}.cls-3{stroke-width:6px;}.cls-4{stroke-width:3px;}.cls-5{fill:#fbb03b;}</style></defs><title>train_car</title><rect class="cls-1" x="451.67" y="501.06" width="43.67" height="5.94" transform="translate(495.33 726.34) rotate(-180)"/><path class="cls-2" d="M621.76,498a40,40,0,1,1-75.85,0" transform="translate(-451.67 -281.73)"/><path class="cls-2" d="M863.26,498a40,40,0,1,1-77.85,0" transform="translate(-451.67 -281.73)"/><line class="cls-3" x1="372.67" y1="238.27" x2="132.17" y2="238.27"/><rect class="cls-4" x="496.33" y="306" width="423" height="200" transform="translate(964 530.27) rotate(-180)"/><rect class="cls-2" x="496.33" y="490" width="423" height="16" transform="translate(964 714.27) rotate(-180)"/><path class="cls-2" d="M924.83,311.5s-2-30.25-65.58-29.25c-41,.65-319.87.63-319.87,0.63S492,282.5,490.83,311.5h434Z" transform="translate(-451.67 -281.73)"/><rect class="cls-1" x="920.33" y="501.06" width="43.67" height="5.94" transform="translate(1432.67 726.34) rotate(-180)"/><circle class="cls-5" cx="132.17" cy="238.27" r="2.92"/><circle class="cls-5" cx="372.67" cy="238.27" r="2.92"/></svg>