<?xml version="1.0" encoding="utf-8"?>
<!-- Generator: Adobe Illustrator 19.2.1, SVG Export Plug-In . SVG Version: 6.00 Build 0)  -->
<svg version="1.1" id="Layer_2" xmlns="http://www.w3.org/2000/svg" xmlns:xlink="http://www.w3.org/1999/xlink" x="0px" y="0px"
	 viewBox="0 0 465.3 252" style="enable-background:new 0 0 465.3 252;" xml:space="preserve">
<style type="text/css">
	.st0{fill:#333333;}
	.st1{stroke:#FBB03B;stroke-miterlimit:10;}
	.st2{fill:none;stroke:#FBB03B;stroke-width:6;stroke-miterlimit:10;}
	.st3{fill:#FBB03B;stroke:#000000;stroke-miterlimit:10;}
	.st4{enable-background:new    ;}
	.st5{fill:#FBB03B;}
</style>
<title>train_engine</title>
<path class="st0" d="M91.6,194.5h339.7c2.3,0,4.2,1.9,4.2,4.2v40.7c0,2.3-1.9,4.2-4.2,4.2H91.6c-2.3,0-4.2-1.9-4.2-4.2v-40.7
	C87.5,196.4,89.3,194.5,91.6,194.5z"/>
<polygon class="st1" points="87.5,192 1.8,244 94.3,244 94.3,191.7 "/>
<circle class="st1" cx="123" cy="228.5" r="21.7"/>
<circle class="st1" cx="203" cy="228.5" r="21.8"/>
<circle class="st1" cx="280.8" cy="211.5" r="40"/>
<circle class="st1" cx="390.8" cy="211.5" r="40"/>
<line class="st2" x1="280.8" y1="222.7" x2="390.8" y2="222.5"/>
<rect x="199.5" y="93.5" class="st1" width="31" height="17"/>
<path class="st1" d="M213.8,78.6l-18.6,11.2c-0.9,0.6-1.3,1.8-0.7,2.7c0.4,0.6,1,1,1.7,1h37.1c1.1,0,2-0.9,2-2c0-0.7-0.4-1.3-1-1.7
	l-18.5-11.2C215.2,78.3,214.4,78.3,213.8,78.6z"/>
<rect x="127.5" y="68.5" class="st1" width="24.5" height="42"/>
<polygon class="st1" points="127.4,47 151.5,47 157,56.8 152,70 127.4,70 122.4,56.8 "/>
<path class="st1" d="M104.9,194.6c-7.4-13.3-11.4-28.2-11.6-43.4c0-24.6,13-50.2,13-50.2h272v93.4L104.9,194.6z"/>
<path class="st1" d="M447.5,243.5h-21c0,0,4.7-47.2-40-47.2s-101.3-0.8-101.3-0.8s-10.6,0-15,4.7c-3,3.2-7.3,5.1-11.7,5.1
	l-149.3,1.2c0,0-10.7,0-11,13H87.5v-28l150.4-0.3c0,0,4.1-23,44.1-23.3s37.1,0.5,37.1,0.5l0-154.8h128.3V243.5z"/>
<rect x="313.5" y="0.5" class="st1" width="151.3" height="14"/>
<circle class="st3" cx="384.3" cy="76.3" r="36.2"/>
<g class="st4">
	<path d="M379.4,88.7c0.1,0,0.2-0.1,0.2-0.2V62.7c-2.1,0-3,0.2-3.8,0.3c-0.8,0.2-0.9,0.5-1,1.1l-1,5.3c-1.9-0.1-4.1-0.3-5.8-0.5
		c0.2-3.7,0.4-7.5,0.7-11.2c1.2,0,3.2,0.1,5.2,0.1c1.4,0,8.7,0,10.8,0c1.7,0,8.8,0,10.3,0c2.2-0.1,4.1-0.1,5.2-0.1
		c0.2,3.7,0.4,7.4,0.6,11.1c-1.8,0.2-3.9,0.4-5.9,0.5l-0.9-5.3c-0.1-0.6-0.3-0.9-1-1s-1.4-0.3-3.8-0.3l-0.2,25.8l4,0.2
		c0,1.5,0,3.1-0.1,4.7c-2.3,0-5.6-0.1-8.5-0.1c-2.6,0-5.9,0.1-8.6,0.1c0-1.6,0.1-3.2,0.1-4.7L379.4,88.7z"/>
</g>
<circle class="st5" cx="123" cy="228.5" r="2.9"/>
<circle class="st5" cx="203" cy="228.5" r="2.9"/>
<circle class="st5" cx="280.8" cy="222.7" r="2.9"/>
<circle class="st5" cx="390.8" cy="222.5" r="2.9"/>
</svg>
